Coordinates

Units are S.I. units (second, meters, Newtons, ...)
If the header above contains a line with 'inDegrees', this indicates whether rotational values are in degrees (yes) or radians (no).

inDegrees=no
nColumns=21
nRows=10
DataType=double
version=3
OpenSimVersion=4.6-2026-03-31-d6972f9e6
endheader
time	/jointset/ground_pelvis/pelvis_tilt/value	/jointset/ground_pelvis/pelvis_list/value	/jointset/ground_pelvis/pelvis_rotation/value	/jointset/ground_pelvis/pelvis_tx/value	/jointset/ground_pelvis/pelvis_ty/value	/jointset/ground_pelvis/pelvis_tz/value	/jointset/hip_r/hip_flexion_r/value	/jointset/hip_r/hip_adduction_r/value	/jointset/hip_r/hip_rotation_r/value	/jointset/walker_knee_r/knee_angle_r/value	/jointset/patellofemoral_r/knee_angle_r_beta/value	/jointset/ankle_r/ankle_angle_r/value	/jointset/subtalar_r/subtalar_angle_r/value	/jointset/hip_l/hip_flexion_l/value	/jointset/hip_l/hip_adduction_l/value	/jointset/hip_l/hip_rotation_l/value	/jointset/walker_knee_l/knee_angle_l/value	/jointset/patellofemoral_l/knee_angle_l_beta/value	/jointset/ankle_l/ankle_angle_l/value	/jointset/subtalar_l/subtalar_angle_l/value
144.996	-0.231319438030835	0.1149676472726633	0.2304976644625814	0.9050686505459952	0.9146697407024716	-0.3440377652846515	0.5566738498553409	-0.2795885226925743	-0.02728124169624347	1.580673930772076	1.580673931460099	-0.4167639947438347	-0.514656974183072	0.452507260857649	0.2721316106794895	0.08340500196046495	0.8070786192874795	0.8070786194398483	0.40248266439341	-0.08581076474728275
145	-0.2312383700897772	0.1117680279069071	0.229968030515907	0.9042595622641771	0.9158215340798024	-0.3438223271212629	0.5737124408249974	-0.2773781883302877	-0.0210372431727879	1.573974180406292	1.573974181216041	-0.4108809612470551	-0.5212663232099998	0.4351466536979106	0.2660263050840607	0.08896201650202509	0.7961692502802494	0.7961692504415129	0.4046874978530517	-0.08013725293352045
145.004	-0.2305611799138339	0.1083460238966445	0.2290041345871414	0.9035196466064613	0.9172094647193716	-0.3436028447570154	0.5895331700760663	-0.2745425351386955	-0.01519827321537423	1.56533238522653	1.565332386123809	-0.4056034456753322	-0.5284974622009476	0.4165065707618024	0.2594995026425072	0.09465565071579149	0.7837583303006785	0.783758330455861	0.4055883070042851	-0.07543101374438141
145.008	-0.229390669147954	0.1047468604204773	0.2276078023719724	0.9028490225214628	0.9188153835736963	-0.3433799670411233	0.6042075028105998	-0.2711544009000556	-0.009763217666893772	1.554804478872414	1.554804479821571	-0.4008396666709269	-0.5362610797399177	0.3967443646232321	0.2526359689838053	0.1004779643807806	0.7699137895947324	0.7699137897322071	0.4050411321682588	-0.07181680462841719
145.012	-0.2278384595637449	0.1010125269026919	0.2257816459398571	0.9022481126262143	0.9206200884332321	-0.3431533887803057	0.6178203320482184	-0.2672792191321551	-0.004716076453911118	1.542447499942741	1.542447500909258	-0.3964958297718044	-0.5444498336553172	0.3760286189085063	0.2455163043872511	0.1064192766549816	0.7547099939890083	0.7547099941011277	0.4028978237990681	-0.06939806830912723
145.016	-0.2260197547413774	0.09718064598334433	0.2235292481621984	0.9017176145101782	0.9226038655489577	-0.3429219409629523	0.6304636601794364	-0.2629732590384842	-2.870194854255818e-05	1.528317783283449	1.528317784236001	-0.3924807983499973	-0.5529432982370424	0.3545335116154676	0.2382147449461208	0.112466696498505	0.7382273656234729	0.7382273657068763	0.3990112027603873	-0.0682537018275393
145.02	-0.2240484118076427	0.09328362616988584	0.2208554516382956	0.9012584464266922	0.9247469935257678	-0.3426837162209763	0.6422305493888669	-0.2582825685780893	0.004336276782283654	1.512469399101033	1.512469400012796	-0.388709984647264	-0.5616129778346759	0.3324335535218319	0.2307973748433013	0.118602457540148	0.7205519616904713	0.7205519617460704	0.3932403335398796	-0.06843505288115898
145.024	-0.2220325540969894	0.08934811160973169	0.2177667206342009	0.9008716725220174	0.9270301867525833	-0.342436221870549	0.653209676550635	-0.2532426116194484	0.008422543254056735	1.494952925585714	1.494952926434988	-0.3851082188601979	-0.5703270096918803	0.3098989287356628	0.2233208226995422	0.1248021373321174	0.701775021084773	0.7017750211172415	0.3854557042415213	-0.06996331497936557
145.028	-0.2200707491396915	0.08539475951675932	0.2142715121955155	0.9005584214110124	0.929434980080617	-0.342176551188379	0.6634805737233439	-0.2478785637235798	0.01227732469009359	1.475814579568858	1.475814580339173	-0.381611718981365	-0.5789545068384182	0.287091359443852	0.2158314874242798	0.1310328830166562	0.6819923516010932	0.6819923516176934	0.3755441817628249	-0.07282755448580483
145.032	-0.218248773029932	0.08143835332993442	0.2103806025486962	0.9003198096346509	0.9319440549931381	-0.3419015631250304	0.6731096259167247	-0.2422062070170138	0.01594885371063942	1.455095718105418	1.455095718785332	-0.3781693489317111	-0.5873695220596928	0.264160448250581	0.2083653069524625	0.1372517494660406	0.6613034970019175	0.6613034970106808	0.3634136382194582	-0.07698354676066627
